<?xml version="1.0" encoding="UTF-8"?>
<svg width="100%" height="100%" viewBox="0 0 1200 280" fill="none" xmlns="http://www.w3.org/2000/svg" preserveAspectRatio="xMidYMid slice" aria-hidden="true" focusable="false">
  <defs>
    <!-- Chakra theme CSS variables (no hard-coded colors) -->
    <linearGradient id="bg" x1="0" y1="0" x2="1200" y2="280" gradientUnits="userSpaceOnUse">
      <stop offset="0" stop-color="var(--chakra-colors-gray-50)" />
      <stop offset="0.55" stop-color="var(--chakra-colors-purple-50)" />
      <stop offset="1" stop-color="var(--chakra-colors-gray-50)" />
    </linearGradient>

    <linearGradient id="accent" x1="0" y1="0" x2="1" y2="1">
      <stop offset="0" stop-color="var(--chakra-colors-purple-500)" stop-opacity="0.85" />
      <stop offset="1" stop-color="var(--chakra-colors-blue-300)" stop-opacity="0.55" />
    </linearGradient>

    <pattern id="dots" width="26" height="26" patternUnits="userSpaceOnUse">
      <circle cx="3" cy="3" r="1.2" fill="var(--chakra-colors-gray-300)" fill-opacity="0.55" />
    </pattern>

    <filter id="soft" x="-20%" y="-20%" width="140%" height="140%" color-interpolation-filters="sRGB">
      <feGaussianBlur in="SourceGraphic" stdDeviation="10" result="blur" />
      <feColorMatrix in="blur" type="matrix" values="1 0 0 0 0  0 1 0 0 0  0 0 1 0 0  0 0 0 0.22 0" />
      <feBlend in="SourceGraphic" mode="normal" />
    </filter>

    <filter id="card" x="-10%" y="-10%" width="120%" height="120%" color-interpolation-filters="sRGB">
      <feDropShadow dx="0" dy="10" stdDeviation="10" flood-color="var(--chakra-colors-gray-500)" flood-opacity="0.18" />
    </filter>

    <clipPath id="r">
      <rect x="0" y="0" width="1200" height="280" rx="18" />
    </clipPath>
  </defs>

  <g clip-path="url(#r)">
    <rect width="1200" height="280" fill="url(#bg)" />
    <rect width="1200" height="280" fill="url(#dots)" opacity="0.55" />

    <!-- Soft blobs (subtle) -->
    <g filter="url(#soft)">
      <circle cx="985" cy="70" r="135" fill="url(#accent)" opacity="0.22" />
      <circle cx="1120" cy="212" r="175" fill="url(#accent)" opacity="0.16" />
      <circle cx="210" cy="210" r="160" fill="url(#accent)" opacity="0.12" />
    </g>

    <!-- Accent sweep -->
    <path d="M-40 190C132 88 280 56 418 60C590 64 664 146 804 152C946 158 1036 112 1240 56V98C1068 140 954 224 790 226C636 228 560 154 404 146C230 138 108 174-40 244V190Z" fill="url(#accent)" opacity="0.14" />

    <!-- Three finance panels -->
    <g filter="url(#card)">
      <rect x="78" y="62" width="392" height="156" rx="16" fill="var(--chakra-colors-white)" stroke="var(--chakra-colors-gray-200)" />
      <rect x="494" y="62" width="340" height="156" rx="16" fill="var(--chakra-colors-white)" stroke="var(--chakra-colors-gray-200)" />
      <rect x="858" y="62" width="264" height="156" rx="16" fill="var(--chakra-colors-white)" stroke="var(--chakra-colors-gray-200)" />
    </g>

    <!-- Panel 1: calendar + plan rows -->
    <g>
      <rect x="110" y="88" width="140" height="18" rx="9" fill="var(--chakra-colors-purple-100)" />
      <rect x="110" y="116" width="330" height="10" rx="5" fill="var(--chakra-colors-gray-100)" />
      <rect x="110" y="136" width="300" height="10" rx="5" fill="var(--chakra-colors-gray-100)" />
      <rect x="110" y="156" width="260" height="10" rx="5" fill="var(--chakra-colors-gray-100)" />

      <!-- calendar grid -->
      <rect x="292" y="88" width="150" height="92" rx="12" fill="var(--chakra-colors-gray-50)" stroke="var(--chakra-colors-gray-200)" />
      <rect x="302" y="98" width="130" height="10" rx="5" fill="var(--chakra-colors-gray-200)" />
      <g fill="var(--chakra-colors-gray-200)">
        <rect x="304" y="116" width="24" height="18" rx="4" />
        <rect x="334" y="116" width="24" height="18" rx="4" />
        <rect x="364" y="116" width="24" height="18" rx="4" />
        <rect x="394" y="116" width="24" height="18" rx="4" />

        <rect x="304" y="138" width="24" height="18" rx="4" fill="var(--chakra-colors-purple-200)" />
        <rect x="334" y="138" width="24" height="18" rx="4" />
        <rect x="364" y="138" width="24" height="18" rx="4" />
        <rect x="394" y="138" width="24" height="18" rx="4" />

        <rect x="304" y="160" width="24" height="18" rx="4" />
        <rect x="334" y="160" width="24" height="18" rx="4" />
        <rect x="364" y="160" width="24" height="18" rx="4" fill="var(--chakra-colors-purple-200)" />
        <rect x="394" y="160" width="24" height="18" rx="4" />
      </g>
    </g>

    <!-- Panel 2: bar chart + import arrow -->
    <g>
      <rect x="526" y="88" width="180" height="18" rx="9" fill="var(--chakra-colors-blue-100)" />
      <rect x="526" y="118" width="270" height="10" rx="5" fill="var(--chakra-colors-gray-100)" />
      <rect x="526" y="138" width="240" height="10" rx="5" fill="var(--chakra-colors-gray-100)" />

      <!-- bars -->
      <rect x="526" y="160" width="22" height="38" rx="6" fill="var(--chakra-colors-purple-200)" />
      <rect x="554" y="150" width="22" height="48" rx="6" fill="var(--chakra-colors-purple-300)" />
      <rect x="582" y="172" width="22" height="26" rx="6" fill="var(--chakra-colors-purple-200)" />
      <rect x="610" y="142" width="22" height="56" rx="6" fill="var(--chakra-colors-purple-400)" />
      <rect x="638" y="158" width="22" height="40" rx="6" fill="var(--chakra-colors-purple-300)" />

      <!-- arrow -->
      <path d="M736 176H798" stroke="var(--chakra-colors-gray-300)" stroke-width="4" stroke-linecap="round" />
      <path d="M792 164L804 176L792 188" stroke="var(--chakra-colors-gray-400)" stroke-width="4" stroke-linecap="round" stroke-linejoin="round" />
      <rect x="808" y="150" width="14" height="52" rx="7" fill="var(--chakra-colors-green-200)" />
    </g>

    <!-- Panel 3: donut + progress pill -->
    <g>
      <rect x="890" y="88" width="160" height="18" rx="9" fill="var(--chakra-colors-teal-100)" />
      <rect x="890" y="118" width="210" height="10" rx="5" fill="var(--chakra-colors-gray-100)" />
      <rect x="890" y="138" width="185" height="10" rx="5" fill="var(--chakra-colors-gray-100)" />

      <!-- donut chart -->
      <circle cx="970" cy="176" r="32" stroke="var(--chakra-colors-gray-200)" stroke-width="10" />
      <path d="M970 144a32 32 0 0 1 28 16" stroke="var(--chakra-colors-purple-400)" stroke-width="10" stroke-linecap="round" />
      <path d="M998 160a32 32 0 0 1 -14 40" stroke="var(--chakra-colors-blue-300)" stroke-width="10" stroke-linecap="round" />
      <path d="M984 200a32 32 0 0 1 -38 2" stroke="var(--chakra-colors-teal-300)" stroke-width="10" stroke-linecap="round" />

      <!-- mini progress pill -->
      <rect x="1014" y="166" width="92" height="18" rx="9" fill="var(--chakra-colors-purple-100)" />
      <rect x="1014" y="166" width="54" height="18" rx="9" fill="var(--chakra-colors-purple-300)" opacity="0.95" />
    </g>

    <!-- Coins (small accents) -->
    <g opacity="0.95">
      <circle cx="92" cy="46" r="8" fill="var(--chakra-colors-yellow-200)" />
      <circle cx="92" cy="46" r="8" fill="var(--chakra-colors-yellow-300)" fill-opacity="0.35" />

      <circle cx="1146" cy="236" r="9" fill="var(--chakra-colors-yellow-200)" />
      <circle cx="1146" cy="236" r="9" fill="var(--chakra-colors-yellow-300)" fill-opacity="0.35" />
    </g>
  </g>
</svg>
